<svg preserveAspectRatio="none" overflow="visible" style="display: block;" width="12.375" height="12.375" viewBox="0 0 12.375 12.375" fill="none" xmlns="http://www.w3.org/2000/svg">
<path id="Vector" d="M4.5 0H1.125C0.826631 0 0.540483 0.118526 0.329505 0.329505C0.118526 0.540483 0 0.826631 0 1.125V4.5C0 4.79837 0.118526 5.08452 0.329505 5.29549C0.540483 5.50647 0.826631 5.625 1.125 5.625H4.5C4.79837 5.625 5.08452 5.50647 5.29549 5.29549C5.50647 5.08452 5.625 4.79837 5.625 4.5V1.125C5.625 0.826631 5.50647 0.540483 5.29549 0.329505C5.08452 0.118526 4.79837 0 4.5 0ZM4.5 4.5H1.125V1.125H4.5V4.5ZM11.25 0H7.875C7.57663 0 7.29048 0.118526 7.07951 0.329505C6.86853 0.540483 6.75 0.826631 6.75 1.125V4.5C6.75 4.79837 6.86853 5.08452 7.07951 5.29549C7.29048 5.50647 7.57663 5.625 7.875 5.625H11.25C11.5484 5.625 11.8345 5.50647 12.0455 5.29549C12.2565 5.08452 12.375 4.79837 12.375 4.5V1.125C12.375 0.826631 12.2565 0.540483 12.0455 0.329505C11.8345 0.118526 11.5484 0 11.25 0ZM11.25 4.5H7.875V1.125H11.25V4.5ZM4.5 6.75H1.125C0.826631 6.75 0.540483 6.86853 0.329505 7.07951C0.118526 7.29048 0 7.57663 0 7.875V11.25C0 11.5484 0.118526 11.8345 0.329505 12.0455C0.540483 12.2565 0.826631 12.375 1.125 12.375H4.5C4.79837 12.375 5.08452 12.2565 5.29549 12.0455C5.50647 11.8345 5.625 11.5484 5.625 11.25V7.875C5.625 7.57663 5.50647 7.29048 5.29549 7.07951C5.08452 6.86853 4.79837 6.75 4.5 6.75ZM4.5 11.25H1.125V7.875H4.5V11.25ZM11.25 6.75H7.875C7.57663 6.75 7.29048 6.86853 7.07951 7.07951C6.86853 7.29048 6.75 7.57663 6.75 7.875V11.25C6.75 11.5484 6.86853 11.8345 7.07951 12.0455C7.29048 12.2565 7.57663 12.375 7.875 12.375H11.25C11.5484 12.375 11.8345 12.2565 12.0455 12.0455C12.2565 11.8345 12.375 11.5484 12.375 11.25V7.875C12.375 7.57663 12.2565 7.29048 12.0455 7.07951C11.8345 6.86853 11.5484 6.75 11.25 6.75ZM11.25 11.25H7.875V7.875H11.25V11.25Z" fill="#535250"/>
</svg>
