<svg preserveAspectRatio="none" overflow="visible" style="display: block;" width="16.25" height="13.75" viewBox="0 0 16.25 13.75" fill="none" xmlns="http://www.w3.org/2000/svg">
<path id="Vector" opacity="0.2" d="M15.2138 6.18774L12.4998 8.9018C12.0549 9.34725 11.5021 9.66967 10.8953 9.83755C10.2885 10.0054 9.64861 10.013 9.03804 9.85962C9.01382 9.88618 8.9896 9.91196 8.96382 9.93774L6.24976 12.6518C5.913 12.9968 5.51111 13.2715 5.0674 13.46C4.62369 13.6485 4.14698 13.747 3.6649 13.7499C3.18281 13.7528 2.70495 13.66 2.259 13.4769C1.81305 13.2937 1.40789 13.0239 1.067 12.683C0.72611 12.3421 0.456271 11.9369 0.273124 11.491C0.0899767 11.0451 -0.00283579 10.5672 6.59995e-05 10.0851C0.00296779 9.60302 0.101526 9.12631 0.290029 8.6826C0.478531 8.23889 0.753228 7.837 1.0982 7.50024L3.81226 4.78618C4.25722 4.34086 4.81005 4.01852 5.41678 3.85065C6.02351 3.68278 6.6634 3.6751 7.27398 3.82837C7.2982 3.8018 7.32242 3.77602 7.3521 3.75024L10.0623 1.03618C10.7482 0.366569 11.6704 -0.00570377 12.629 6.60825e-05C13.5875 0.00583593 14.5052 0.389183 15.183 1.067C15.8608 1.74482 16.2442 2.66248 16.2499 3.62104C16.2557 4.5796 15.8834 5.50181 15.2138 6.18774Z" fill="#858887"/>
</svg>
