<svg preserveAspectRatio="none" overflow="visible" style="display: block;" width="13.5" height="13.5" viewBox="0 0 13.5 13.5" fill="none" xmlns="http://www.w3.org/2000/svg">
<path id="Vector" d="M12.375 0H1.125C0.826631 0 0.540483 0.118526 0.329505 0.329505C0.118526 0.540483 0 0.826631 0 1.125V12.375C0 12.6734 0.118526 12.9595 0.329505 13.1705C0.540483 13.3815 0.826631 13.5 1.125 13.5H12.375C12.6734 13.5 12.9595 13.3815 13.1705 13.1705C13.3815 12.9595 13.5 12.6734 13.5 12.375V1.125C13.5 0.826631 13.3815 0.540483 13.1705 0.329505C12.9595 0.118526 12.6734 0 12.375 0ZM12.375 1.125V8.4375H10.357C10.2094 8.43712 10.0631 8.46608 9.92669 8.52268C9.79029 8.57929 9.6665 8.66243 9.5625 8.76727L8.20477 10.125H5.29523L3.9375 8.76727C3.83341 8.66235 3.70951 8.57916 3.57299 8.52255C3.43647 8.46594 3.29006 8.43703 3.14227 8.4375H1.125V1.125H12.375ZM12.375 12.375H1.125V9.5625H3.14227L4.5 10.9202C4.60409 11.0252 4.72799 11.1083 4.86451 11.165C5.00103 11.2216 5.14744 11.2505 5.29523 11.25H8.20477C8.35256 11.2505 8.49897 11.2216 8.63549 11.165C8.77201 11.1083 8.89591 11.0252 9 10.9202L10.3577 9.5625H12.375V12.375Z" fill="#535250"/>
</svg>
