<svg preserveAspectRatio="none" overflow="visible" style="display: block;" width="16.25" height="16.25" viewBox="0 0 16.25 16.25" fill="none" xmlns="http://www.w3.org/2000/svg">
<path id="Vector" d="M8.125 0C6.51803 0 4.94714 0.476523 3.611 1.36931C2.27485 2.2621 1.23344 3.53105 0.618482 5.0157C0.00352043 6.50035 -0.157382 8.13401 0.156123 9.71011C0.469628 11.2862 1.24346 12.7339 2.37976 13.8702C3.51606 15.0065 4.9638 15.7804 6.53989 16.0939C8.11599 16.4074 9.74966 16.2465 11.2343 15.6315C12.719 15.0166 13.9879 13.9752 14.8807 12.639C15.7735 11.3029 16.25 9.73197 16.25 8.125C16.2475 5.97088 15.3907 3.90569 13.8675 2.3825C12.3443 0.859302 10.2791 0.00248123 8.125 0ZM15 8.125C15.0005 8.75903 14.913 9.39007 14.7398 10H11.7313C11.9229 8.75735 11.9229 7.49265 11.7313 6.25H14.7398C14.913 6.85993 15.0005 7.49097 15 8.125ZM6.09375 11.25H10.1563C9.75603 12.5614 9.06124 13.7639 8.125 14.7656C7.18913 13.7637 6.49439 12.5612 6.09375 11.25ZM5.78907 10C5.57449 8.75921 5.57449 7.49079 5.78907 6.25H10.4672C10.6818 7.49079 10.6818 8.75921 10.4672 10H5.78907ZM1.25 8.125C1.24946 7.49097 1.33702 6.85993 1.51016 6.25H4.51875C4.32708 7.49265 4.32708 8.75735 4.51875 10H1.51016C1.33702 9.39007 1.24946 8.75903 1.25 8.125ZM10.1563 5H6.09375C6.49398 3.6886 7.18877 2.48608 8.125 1.48438C9.06088 2.48634 9.75562 3.68878 10.1563 5ZM14.2445 5H11.4617C11.111 3.71321 10.5198 2.50443 9.71954 1.4375C10.6865 1.66979 11.5918 2.10842 12.3734 2.72332C13.1549 3.33823 13.7943 4.11487 14.2477 5H14.2445ZM6.53047 1.4375C5.73016 2.50443 5.13903 3.71321 4.78828 5H2.00235C2.45568 4.11487 3.09506 3.33823 3.87663 2.72332C4.65821 2.10842 5.56351 1.66979 6.53047 1.4375ZM2.00235 11.25H4.78828C5.13903 12.5368 5.73016 13.7456 6.53047 14.8125C5.56351 14.5802 4.65821 14.1416 3.87663 13.5267C3.09506 12.9118 2.45568 12.1351 2.00235 11.25ZM9.71954 14.8125C10.5198 13.7456 11.111 12.5368 11.4617 11.25H14.2477C13.7943 12.1351 13.1549 12.9118 12.3734 13.5267C11.5918 14.1416 10.6865 14.5802 9.71954 14.8125Z" fill="#858887"/>
</svg>
